#N canvas -2081 -667 2400 1236 10;
#X obj 372 260 tgl 30 0 empty empty on/off 0 -6 0 8 #fcfcfc #000000 #000000 0 1;
#X obj 582 424 f 0;
#X obj 622 424 + 1;
#X obj 662 424 mod 16;
#X obj 582 454 sel 0 1 2 3 4 5 6 7 8 9 10 11 12 13 14 15;
#X msg 532 514 60;
#X msg 562 514 67;
#X msg 592 514 72;
#X msg 622 514 74;
#X msg 652 514 72;
#X msg 682 514 67;
#X msg 712 514 64;
#X msg 742 514 67;
#X msg 772 514 60;
#X msg 802 514 67;
#X msg 832 514 75;
#X msg 862 514 74;
#X msg 892 514 70;
#X msg 922 514 67;
#X msg 952 514 62;
#X msg 982 514 67;
#X obj 652 574 t b b f;
#X obj 652 614 mtof;
#X obj 652 654 osc~;
#X msg 772 584 0.63 30;
#X obj 872 584 del 180;
#X msg 872 624 0 30;
#X obj 772 674 line~;
#X obj 652 704 *~;
#X obj 652 744 *~ 0.1;
#X obj 548 944 dac~;
#X obj 135 129 loadbang;
#X msg 110 235 \; pd dsp 1;
#X msg 225 237 1;
#X obj 99 517 sig~;
#X obj 99 547 lop~ 5;
#X obj 229 507 *~;
#X obj 359 507 *~;
#X obj 229 547 *~ 0.15;
#X obj 359 547 *~ 0.15;
#X obj 229 467 osc~ 180;
#X obj 359 467 osc~ 240;
#X obj 582 394 metro 1000;
#X connect 0 0 34 0;
#X connect 0 0 42 0;
#X connect 1 0 4 0;
#X connect 1 0 2 0;
#X connect 2 0 3 0;
#X connect 3 0 1 1;
#X connect 4 0 5 0;
#X connect 4 1 6 0;
#X connect 4 2 7 0;
#X connect 4 3 8 0;
#X connect 4 4 9 0;
#X connect 4 5 10 0;
#X connect 4 6 11 0;
#X connect 4 7 12 0;
#X connect 4 8 13 0;
#X connect 4 9 14 0;
#X connect 4 10 15 0;
#X connect 4 11 16 0;
#X connect 4 12 17 0;
#X connect 4 13 18 0;
#X connect 4 14 19 0;
#X connect 4 15 20 0;
#X connect 5 0 21 0;
#X connect 6 0 21 0;
#X connect 7 0 21 0;
#X connect 8 0 21 0;
#X connect 9 0 21 0;
#X connect 10 0 21 0;
#X connect 11 0 21 0;
#X connect 12 0 21 0;
#X connect 13 0 21 0;
#X connect 14 0 21 0;
#X connect 15 0 21 0;
#X connect 16 0 21 0;
#X connect 17 0 21 0;
#X connect 18 0 21 0;
#X connect 19 0 21 0;
#X connect 20 0 21 0;
#X connect 21 0 24 0;
#X connect 21 1 25 0;
#X connect 21 2 22 0;
#X connect 22 0 23 0;
#X connect 23 0 28 0;
#X connect 24 0 27 0;
#X connect 25 0 26 0;
#X connect 26 0 27 0;
#X connect 27 0 28 1;
#X connect 28 0 29 0;
#X connect 29 0 30 0;
#X connect 29 0 30 1;
#X connect 31 0 32 0;
#X connect 31 0 33 0;
#X connect 33 0 0 0;
#X connect 34 0 35 0;
#X connect 35 0 36 1;
#X connect 35 0 37 1;
#X connect 36 0 38 0;
#X connect 37 0 39 0;
#X connect 38 0 30 0;
#X connect 39 0 30 1;
#X connect 40 0 36 0;
#X connect 41 0 37 0;
#X connect 42 0 1 0;
